<?xml version="1.0" standalone="no"?>
<!DOCTYPE svg PUBLIC "-//W3C//DTD SVG 20010904//EN"
 "http://www.w3.org/TR/2001/REC-SVG-20010904/DTD/svg10.dtd">
<svg version="1.0" xmlns="http://www.w3.org/2000/svg"
 width="426.000000pt" height="426.000000pt" viewBox="0 0 426.000000 426.000000"
 preserveAspectRatio="xMidYMid meet">
<metadata>
Created by potrace 1.11, written by Peter Selinger 2001-2013
</metadata>
<g transform="translate(0.000000,426.000000) scale(0.100000,-0.100000)"
fill="#000000" stroke="none">
<path d="M4035 4241 c-6 -4 -39 -24 -75 -43 -105 -57 -1905 -1050 -2012 -1110
-13 -7 -27 -19 -31 -25 -10 -16 -27 -17 -27 -2 0 6 -82 176 -182 378 l-182
368 -142 52 -141 52 -116 -27 c-95 -22 -123 -33 -150 -58 -169 -156 -227 -203
-247 -203 -14 0 -108 -8 -225 -18 -93 -8 -240 -18 -267 -18 -15 -1 -25 -3 -23
-6 5 -4 186 -52 250 -65 11 -3 81 -20 155 -40 142 -36 146 -39 478 -244 20
-13 45 -26 56 -29 17 -5 18 -14 11 -94 -3 -49 -8 -99 -10 -111 -2 -13 -6 -57
-10 -98 -3 -41 -8 -94 -11 -118 -6 -47 -30 4 260 -545 24 -45 81 -154 128
-242 47 -88 116 -218 153 -290 38 -71 77 -143 87 -160 10 -16 18 -38 18 -47 0
-11 12 -21 33 -26 17 -5 133 -38 257 -72 124 -34 229 -66 234 -71 11 -10 11
-14 20 -159 4 -58 9 -123 11 -145 2 -22 7 -92 11 -155 3 -63 7 -130 9 -149 1
-20 18 -53 41 -84 22 -29 93 -122 159 -208 66 -86 165 -216 220 -288 55 -72
105 -130 112 -129 6 2 79 64 162 138 l152 135 -6 77 c-3 43 -9 110 -15 150 -5
40 -11 93 -14 118 -3 25 -10 86 -16 135 -6 50 -13 113 -16 140 -6 59 -13 117
-19 165 -3 19 -7 62 -10 95 -9 87 -15 114 -29 122 -12 7 -149 128 -185 164 -9
8 -89 79 -178 158 l-162 142 212 108 c418 213 925 470 1067 542 158 80 158 79
34 93 -32 3 -70 8 -84 11 -22 3 -131 18 -223 31 -30 3 -97 13 -137 19 -14 2
-79 11 -145 20 -185 25 -175 14 -94 98 38 39 78 88 88 107 15 30 346 641 446
825 18 33 94 175 170 315 76 140 141 260 144 265 28 40 32 80 6 56z m-2812
-616 c-3 -9 -8 -14 -10 -11 -3 3 -2 9 2 15 9 16 15 13 8 -4z m582 -845 c3 -5
1 -10 -4 -10 -6 0 -11 5 -11 10 0 6 2 10 4 10 3 0 8 -4 11 -10z m-100 -69 c3
-5 2 -12 -3 -15 -5 -3 -9 1 -9 9 0 17 3 19 12 6z m816 -1424 c-10 -9 -11 -8
-5 6 3 10 9 15 12 12 3 -3 0 -11 -7 -18z"/>
</g>
</svg>
