<?xml version="1.0" standalone="no"?>
<!DOCTYPE svg PUBLIC "-//W3C//DTD SVG 20010904//EN"
 "http://www.w3.org/TR/2001/REC-SVG-20010904/DTD/svg10.dtd">
<svg version="1.0" xmlns="http://www.w3.org/2000/svg"
 width="2048.000000pt" height="2048.000000pt" viewBox="0 0 2048.000000 2048.000000"
 preserveAspectRatio="xMidYMid meet">
<metadata>
Created by potrace 1.11, written by Peter Selinger 2001-2013
</metadata>
<g transform="translate(0.000000,2048.000000) scale(0.100000,-0.100000)"
fill="#000000" stroke="none">
<path d="M5270 16325 c0 -2 5 -15 11 -29 9 -20 9 -29 0 -40 -7 -8 -10 -20 -6
-26 9 -15 14 -41 30 -165 3 -27 12 -84 20 -125 19 -101 23 -124 36 -205 6 -38
14 -86 19 -105 5 -19 11 -55 14 -80 4 -25 8 -56 10 -70 29 -176 49 -386 49
-517 0 -18 4 -33 8 -33 4 0 6 -16 4 -35 -2 -19 0 -49 5 -66 5 -17 12 -57 15
-88 4 -31 17 -101 30 -156 13 -55 31 -134 39 -175 14 -72 18 -100 31 -200 3
-25 7 -61 10 -80 9 -70 14 -116 20 -185 3 -38 7 -81 10 -95 2 -14 7 -52 10
-84 3 -33 8 -62 9 -65 2 -3 7 -44 10 -91 4 -47 9 -94 11 -105 13 -58 35 -200
40 -257 3 -29 7 -73 10 -98 4 -25 8 -72 10 -105 2 -33 8 -96 13 -140 6 -44 13
-114 17 -155 9 -113 12 -144 50 -455 3 -22 7 -60 10 -85 3 -25 8 -52 10 -60 3
-8 7 -36 9 -61 3 -25 7 -57 10 -70 3 -13 8 -55 11 -94 3 -38 8 -88 10 -110 2
-22 7 -71 10 -110 3 -38 9 -78 12 -89 3 -10 6 -53 8 -95 2 -42 8 -98 14 -126
11 -47 15 -78 25 -180 2 -22 9 -58 14 -80 6 -22 14 -60 17 -85 3 -25 8 -56 10
-70 8 -57 17 -117 20 -140 3 -14 6 -45 9 -70 4 -42 16 -147 21 -179 1 -8 -15
-29 -35 -47 -35 -32 -58 -41 -105 -43 -15 -1 -17 -3 -6 -10 10 -7 8 -10 -10
-16 -47 -15 -356 -170 -454 -228 -55 -33 -133 -78 -175 -100 -41 -22 -120 -70
-175 -105 -241 -156 -305 -196 -325 -205 -8 -4 -46 -27 -85 -52 -64 -41 -188
-113 -305 -177 -356 -195 -581 -325 -678 -392 -56 -39 -112 -77 -125 -83 -12
-7 -18 -13 -13 -13 9 0 -16 -24 -51 -48 -16 -11 -16 -12 6 -6 13 3 51 8 85 10
33 2 108 13 166 24 58 11 123 22 145 25 22 3 65 10 96 16 31 5 81 12 110 15
30 2 70 7 89 10 19 3 44 7 55 8 11 2 40 6 65 10 25 4 56 9 70 11 14 2 66 11
115 19 50 8 113 17 140 21 28 3 57 8 65 10 18 5 55 11 130 20 30 4 64 9 75 11
10 2 37 6 60 9 34 5 108 18 230 40 17 3 109 16 205 30 214 31 376 58 495 84
50 10 117 22 150 26 33 5 62 8 64 9 3 1 17 -39 56 -169 16 -49 54 -162 85
-250 32 -88 75 -221 95 -295 21 -74 49 -173 62 -220 14 -47 36 -128 50 -180
13 -52 37 -138 53 -190 25 -80 95 -348 105 -401 2 -9 22 -86 45 -170 23 -85
43 -163 46 -173 2 -11 28 -94 59 -185 30 -91 64 -206 74 -256 69 -323 97 -441
141 -610 27 -104 72 -275 99 -380 28 -104 62 -226 76 -269 14 -43 25 -84 25
-90 0 -15 43 -149 69 -214 27 -69 92 -280 96 -312 7 -62 117 -279 188 -370 42
-54 158 -191 177 -210 3 -3 25 -30 50 -60 25 -30 68 -80 97 -110 28 -30 73
-77 98 -105 30 -32 40 -39 26 -18 -12 17 -21 34 -21 39 0 4 -19 32 -42 63 -23
31 -53 72 -67 91 l-25 35 40 -36 c21 -20 51 -46 66 -59 39 -33 81 -134 84
-200 2 -67 2 -68 12 -53 4 6 39 26 77 45 74 35 79 38 465 268 135 80 301 175
370 210 277 140 694 378 860 490 63 43 152 101 198 128 45 28 78 52 72 54 -12
4 52 49 76 52 9 1 40 -2 68 -7 28 -5 107 -10 176 -12 112 -2 152 -5 255 -19
80 -11 151 -19 280 -32 39 -3 79 -8 90 -10 11 -2 51 -7 88 -10 37 -3 76 -7 85
-9 10 -2 45 -6 77 -10 33 -4 68 -9 77 -11 10 -1 62 -6 115 -9 54 -4 100 -8
103 -10 3 -2 39 -6 80 -10 41 -4 84 -9 95 -11 11 -3 45 -7 75 -9 30 -3 75 -7
100 -10 25 -2 81 -7 125 -11 44 -3 83 -8 86 -10 3 -2 26 -6 50 -9 24 -3 69 -9
99 -15 30 -5 118 -16 195 -25 184 -21 212 -25 260 -35 22 -5 62 -11 89 -15 27
-3 76 -12 110 -20 52 -12 167 -33 281 -51 34 -5 90 -15 120 -20 11 -2 40 -7
65 -10 43 -6 55 -8 110 -18 37 -8 144 -23 210 -30 25 -3 101 -12 170 -21 69
-9 143 -18 165 -21 22 -3 63 -9 90 -14 28 -5 68 -12 90 -15 80 -10 320 -45
340 -48 11 -3 43 -8 70 -11 67 -10 114 -17 134 -21 33 -6 168 -24 221 -30 30
-3 66 -7 80 -9 67 -9 127 -19 145 -23 11 -2 45 -6 75 -9 128 -11 165 -16 360
-51 113 -20 215 -36 228 -36 12 1 22 -2 22 -6 0 -6 31 -12 78 -14 12 -1 22 -5
22 -9 0 -10 57 -11 63 0 2 4 2 1 1 -5 -2 -7 5 -14 16 -14 11 -1 26 -2 33 -3 6
-1 11 5 9 12 -1 8 2 11 8 7 6 -3 8 -11 5 -16 -4 -5 6 -10 22 -11 42 -2 47 -3
62 -12 11 -7 12 -6 6 5 -7 11 -6 12 6 3 8 -7 34 -15 58 -19 34 -6 42 -4 36 5
-6 10 -4 11 6 4 8 -5 28 -10 44 -10 138 -8 203 -16 289 -34 123 -27 123 -27
226 -44 76 -13 111 -18 230 -32 19 -2 51 -6 70 -9 19 -2 55 -7 80 -10 60 -8
91 -13 185 -30 44 -7 125 -21 180 -29 55 -9 111 -18 125 -20 30 -5 162 -26
205 -32 17 -2 53 -9 80 -14 70 -13 101 -18 170 -25 33 -3 76 -8 95 -10 19 -2
89 -7 155 -10 l120 -5 55 -53 c30 -29 66 -62 80 -72 l24 -20 -22 30 c-12 17
-36 49 -52 72 l-30 41 38 -3 c36 -3 35 -3 -11 11 -32 11 -56 26 -75 51 -30 39
-131 161 -148 180 -6 6 -53 64 -104 127 -51 64 -97 113 -103 109 -5 -3 -7 -2
-4 4 3 5 -14 30 -39 54 -25 24 -67 71 -92 104 -25 33 -49 62 -52 65 -3 3 -23
27 -45 55 -22 27 -63 76 -92 108 -29 32 -85 102 -125 155 -138 184 -184 240
-324 386 -71 74 -250 289 -264 316 -17 32 -74 96 -146 161 -47 43 -312 317
-414 429 -179 196 -215 235 -260 281 -25 25 -77 79 -116 122 -40 42 -75 73
-78 69 -4 -3 -4 1 0 11 4 12 1 17 -12 17 -9 0 -15 3 -11 6 9 10 -30 47 -42 40
-6 -4 -9 -1 -6 6 3 7 -13 33 -35 57 -22 23 -40 48 -40 54 0 5 -3 7 -7 4 -3 -4
-13 2 -20 13 -8 11 -19 18 -24 15 -5 -3 -6 1 -3 9 3 9 2 16 -2 16 -22 0 -105
86 -207 214 -212 268 -405 493 -491 570 -47 43 -95 94 -107 112 -11 19 -23 33
-27 33 -20 -3 -32 2 -27 11 3 5 -5 22 -19 37 -27 29 -34 63 -13 63 8 0 8 3 -2
9 -20 13 22 76 103 156 40 40 74 86 98 135 43 86 91 175 256 480 19 36 54 97
77 135 23 39 65 115 94 170 29 55 92 159 140 230 105 159 83 120 236 425 70
140 151 293 180 340 29 47 90 157 135 245 46 88 93 176 105 195 11 19 44 81
73 137 29 56 66 125 82 153 17 28 30 54 30 57 0 4 6 14 14 22 8 9 42 70 76
136 65 127 71 139 107 196 12 20 45 79 73 130 29 52 82 139 119 194 37 55 98
158 136 230 101 193 202 371 257 455 28 40 67 106 88 145 21 38 52 95 69 125
17 30 63 120 103 200 115 227 187 346 261 429 88 97 105 128 46 80 -67 -54
-73 -56 -54 -19 28 55 10 43 -34 -23 -32 -47 -65 -78 -134 -127 -51 -36 -124
-92 -162 -126 -39 -33 -90 -74 -115 -90 -96 -61 -269 -190 -355 -263 -83 -69
-149 -132 -364 -341 -79 -77 -103 -99 -231 -210 -41 -36 -77 -67 -80 -71 -3
-3 -45 -41 -95 -84 -49 -44 -92 -82 -95 -85 -3 -3 -45 -41 -95 -85 -49 -43
-92 -81 -95 -84 -10 -11 -205 -177 -255 -216 -27 -22 -52 -43 -55 -46 -7 -9
-115 -100 -280 -235 -52 -43 -126 -108 -165 -145 -38 -37 -121 -109 -184 -160
-63 -52 -153 -131 -200 -175 -103 -98 -127 -118 -241 -203 -49 -36 -133 -109
-187 -161 -54 -52 -143 -129 -198 -170 -55 -41 -120 -95 -145 -120 -25 -25
-120 -110 -210 -190 -225 -197 -225 -197 -294 -263 -51 -50 -132 -124 -267
-248 -14 -13 -70 -64 -125 -114 -54 -49 -153 -142 -219 -205 -221 -212 -384
-350 -413 -350 -15 0 -63 19 -107 41 -158 82 -351 178 -408 203 -31 14 -59 31
-61 38 -3 7 -7 63 -10 123 -5 94 -14 157 -40 283 -3 12 -17 85 -31 162 -14 77
-28 148 -30 157 -2 10 -13 63 -24 118 -12 55 -30 165 -41 245 -27 203 -68 476
-79 535 -6 28 -13 72 -16 99 -3 27 -8 52 -10 56 -2 3 -6 39 -10 80 -4 41 -8
77 -10 80 -2 3 -6 26 -10 50 -10 71 -16 103 -19 109 -2 3 -7 29 -10 56 -17
128 -25 155 -27 94 -1 -19 -3 -45 -4 -59 -1 -14 -3 -33 -4 -44 -1 -14 -23 3
-87 67 -47 47 -117 107 -155 134 -177 122 -247 173 -280 205 -20 18 -105 90
-190 158 -84 69 -234 193 -334 275 -146 122 -361 300 -480 396 -56 45 -341
284 -345 288 -17 20 -161 131 -201 156 -98 62 -188 125 -319 226 -74 57 -149
113 -165 123 -118 75 -649 472 -845 633 -111 91 -414 330 -635 500 -320 247
-507 397 -549 438 -32 32 -295 239 -363 285 -43 30 -97 73 -121 97 -24 24 -48
41 -53 37 -5 -3 -9 -2 -8 3 3 13 -12 43 -22 43 -4 0 -6 -8 -2 -17 3 -10 3 -15
-1 -12 -4 4 -9 16 -11 29 -5 27 -50 70 -73 70 -15 0 -15 2 -2 10 8 5 10 10 4
10 -6 0 -24 13 -40 30 -16 16 -35 30 -42 30 -7 0 -10 5 -7 11 4 6 -2 13 -14
16 -11 3 -18 9 -15 14 3 5 2 9 -3 9 -4 0 -23 14 -42 30 -18 16 -38 27 -44 23
-5 -3 -7 -1 -4 4 9 14 -29 47 -44 37 -7 -4 -10 -3 -6 3 3 5 -15 27 -41 48 -26
22 -42 33 -37 24 6 -8 -2 -2 -16 15 -17 19 -30 26 -39 21 -8 -5 -11 -4 -7 2 4
6 0 16 -8 23 -8 7 -15 9 -15 4 0 -5 -5 -1 -11 9 -6 9 -15 15 -20 12 -5 -4 -6
-12 -3 -18 4 -7 3 -8 -2 -4 -5 5 -9 15 -9 22 0 21 -133 105 -153 98 -9 -3 -14
-3 -10 2 11 11 -18 35 -42 35 -12 0 -18 5 -15 10 6 9 -10 14 -42 13 -7 -1 -11
2 -8 6 2 4 -22 20 -53 35 -79 39 -252 157 -252 172 0 7 -5 16 -12 20 -7 4 -8
3 -4 -4 23 -37 -80 30 -122 79 -20 25 -52 39 -52 24z m60 -112 c0 -32 -5 -28
-14 10 -4 19 -3 26 4 22 5 -3 10 -18 10 -32z m517 -268 c0 -8 -4 -12 -9 -9 -5
3 -6 10 -3 15 9 13 12 11 12 -6z m84 -42 c13 -16 12 -17 -3 -4 -17 13 -22 21
-14 21 2 0 10 -8 17 -17z m39 -47 c-7 -7 -13 -7 -20 0 -6 6 -3 10 10 10 13 0
16 -4 10 -10z m40 -10 c0 -2 -7 -7 -16 -10 -8 -3 -12 -2 -9 4 6 10 25 14 25 6z
m-364 -48 c3 -4 -1 -5 -10 -4 -8 1 -18 5 -22 8 -3 4 1 5 10 4 8 -1 18 -5 22
-8z m444 -40 c0 -4 -4 -8 -9 -8 -6 0 -12 4 -15 8 -3 5 1 9 9 9 8 0 15 -4 15
-9z m-385 -38 c3 -5 1 -10 -4 -10 -6 0 -11 5 -11 10 0 6 2 10 4 10 3 0 8 -4
11 -10z m455 6 c0 -2 -8 -10 -17 -17 -16 -13 -17 -12 -4 4 13 16 21 21 21 13z
m-458 -41 c3 0 9 -3 13 -7 4 -3 0 -5 -9 -4 -9 1 -22 8 -29 16 -10 10 -9 11 3
4 8 -5 18 -9 22 -9z m523 -4 c3 -5 2 -12 -3 -15 -5 -3 -9 1 -9 9 0 17 3 19 12
6z m-485 -15 c0 -2 -8 -10 -17 -17 -16 -13 -17 -12 -4 4 13 16 21 21 21 13z
m507 -51 c0 -8 -4 -12 -9 -9 -5 3 -6 10 -3 15 9 13 12 11 12 -6z m38 -3 c-3
-3 -11 0 -18 7 -9 10 -8 11 6 5 10 -3 15 -9 12 -12z m23 -57 c-3 -3 -9 2 -12
12 -6 14 -5 15 5 6 7 -7 10 -15 7 -18z m35 10 c-3 -9 -8 -14 -10 -11 -3 3 -2
9 2 15 9 16 15 13 8 -4z m22 -14 c3 -5 2 -12 -3 -15 -5 -3 -9 1 -9 9 0 17 3
19 12 6z m97 -72 c2 -2 1 -3 -1 -2 -2 2 -9 -2 -16 -7 -8 -7 -12 -5 -12 4 0 12
22 16 29 5z m63 -68 c3 -5 2 -12 -3 -15 -5 -3 -9 1 -9 9 0 17 3 19 12 6z
m2490 -3271 c3 -6 -1 -7 -9 -4 -18 7 -21 14 -7 14 6 0 13 -4 16 -10z m70 -59
c3 -5 2 -12 -3 -15 -5 -3 -9 1 -9 9 0 17 3 19 12 6z m41 -43 c3 -4 -1 -5 -10
-4 -8 1 -18 5 -22 8 -3 4 1 5 10 4 8 -1 18 -5 22 -8z m84 -98 c0 -5 -2 -10 -4
-10 -3 0 -8 5 -11 10 -3 6 -1 10 4 10 6 0 11 -4 11 -10z m95 -48 c-3 -3 -11 0
-18 7 -9 10 -8 11 6 5 10 -3 15 -9 12 -12z m159 -154 c-3 -4 -11 -5 -19 -1
-21 7 -19 12 4 10 11 0 18 -5 15 -9z m21 -46 c-3 -3 -11 0 -18 7 -9 10 -8 11
6 5 10 -3 15 -9 12 -12z m160 -142 c10 -11 16 -20 13 -20 -3 0 -13 9 -23 20
-10 11 -16 20 -13 20 3 0 13 -9 23 -20z m526 -107 c13 -16 12 -17 -3 -4 -17
13 -22 21 -14 21 2 0 10 -8 17 -17z m5398 -101 c-13 -15 -59 -56 -104 -91 -44
-35 -71 -54 -60 -43 23 24 178 161 183 162 2 0 -7 -12 -19 -28z m-3828 -78
c13 -16 12 -16 -7 -6 -11 6 -27 19 -35 28 -13 16 -12 16 7 6 11 -6 27 -19 35
-28z m-1420 -71 c13 -16 12 -17 -3 -4 -10 7 -18 15 -18 17 0 8 8 3 21 -13z
m6272 -108 c-3 -9 -8 -14 -10 -11 -3 3 -2 9 2 15 9 16 15 13 8 -4z m-1373 -38
c0 -2 -10 -12 -22 -23 l-23 -19 19 23 c18 21 26 27 26 19z m-80 -72 c-7 -9
-32 -30 -54 -47 -35 -26 -34 -24 9 15 52 48 67 58 45 32z m-4674 -137 c3 -4
-1 -5 -10 -4 -8 1 -18 5 -22 8 -3 4 1 5 10 4 8 -1 18 -5 22 -8z m44 -78 c0 -5
-2 -10 -4 -10 -3 0 -8 5 -11 10 -3 6 -1 10 4 10 6 0 11 -4 11 -10z m97 -67 c0
-9 -4 -10 -14 -2 -7 6 -13 12 -13 14 0 1 6 2 13 2 8 0 14 -6 14 -14z m4223 14
c0 -2 -10 -12 -22 -23 l-23 -19 19 23 c18 21 26 27 26 19z m-4265 -27 c3 -5 1
-10 -4 -10 -6 0 -11 5 -11 10 0 6 2 10 4 10 3 0 8 -4 11 -10z m78 -15 c-3 -9
-8 -14 -10 -11 -3 3 -2 9 2 15 9 16 15 13 8 -4z m-57 -25 c0 -12 -4 -16 -9
-11 -5 5 -6 14 -3 20 10 15 12 14 12 -9z m104 -14 c0 -3 -4 -8 -10 -11 -5 -3
-10 -1 -10 4 0 6 5 11 10 11 6 0 10 -2 10 -4z m10 -40 c0 -2 -8 -10 -17 -17
-16 -13 -17 -12 -4 4 13 16 21 21 21 13z m-53 -51 c0 -8 -4 -12 -9 -9 -5 3 -6
10 -3 15 9 13 12 11 12 -6z m49 -17 c4 -7 3 -8 -5 -4 -6 4 -20 2 -29 -6 -15
-12 -16 -11 -3 5 16 20 27 22 37 5z m31 -3 c0 -8 -4 -12 -9 -9 -4 3 -8 9 -8
15 0 5 4 9 8 9 5 0 9 -7 9 -15z m44 2 c-6 -8 -9 -16 -6 -19 3 -2 -2 -5 -10 -5
-13 0 -13 3 2 19 19 21 31 25 14 5z m-6 -56 c3 -5 2 -12 -3 -15 -5 -3 -9 1 -9
9 0 17 3 19 12 6z m40 -9 c-3 -3 -11 0 -18 7 -9 10 -8 11 6 5 10 -3 15 -9 12
-12z m15 -26 c0 -2 -8 -10 -17 -17 -16 -13 -17 -12 -4 4 13 16 21 21 21 13z
m76 -28 c3 -4 -1 -5 -10 -4 -8 1 -18 5 -22 8 -3 4 1 5 10 4 8 -1 18 -5 22 -8z
m108 -156 c3 -5 -1 -9 -9 -9 -8 0 -12 4 -9 9 3 4 7 8 9 8 2 0 6 -4 9 -8z
m4052 -1989 c-11 -11 -19 6 -11 24 8 17 8 17 12 0 3 -10 2 -21 -1 -24z m-2066
-1157 c0 -2 -8 -10 -17 -17 -16 -13 -17 -12 -4 4 13 16 21 21 21 13z m-40 -30
c0 -3 -4 -8 -10 -11 -5 -3 -10 -1 -10 4 0 6 5 11 10 11 6 0 10 -2 10 -4z
m4692 -1736 c62 -82 14 -30 -70 76 -35 43 -45 59 -22 34 23 -24 64 -74 92
-110z m69 -87 c13 -16 12 -17 -3 -4 -10 7 -18 15 -18 17 0 8 8 3 21 -13z m30
-40 c13 -16 12 -17 -3 -4 -17 13 -22 21 -14 21 2 0 10 -8 17 -17z m-10317
-192 c-9 -10 -44 44 -44 68 0 22 3 20 24 -19 13 -25 22 -47 20 -49z m11086
-729 c19 -20 19 -22 3 -21 -10 1 -29 5 -43 9 l-25 8 24 1 c24 1 24 1 5 15 -17
13 -17 14 -2 12 10 -1 27 -12 38 -24z m-10366 -36 c-3 -9 -10 -13 -16 -10 -5
3 -4 12 3 20 15 18 22 13 13 -10z m-94 0 c0 -3 -4 -8 -10 -11 -5 -3 -10 -1
-10 4 0 6 5 11 10 11 6 0 10 -2 10 -4z m1 -50 c-13 -32 -31 -35 -23 -3 5 20
22 40 29 33 2 -2 -1 -15 -6 -30z m59 25 c0 -5 -7 -12 -16 -15 -14 -5 -15 -4
-4 9 14 17 20 19 20 6z"/>
</g>
</svg>
